<?xml version="1.0" encoding="UTF-8" standalone="no"?>
<svg
   version="1.1"
   width="256"
   height="128"
   shape-rendering="crispEdges"
   id="svg346"
   sodipodi:docname="Logo.svg"
   inkscape:version="1.2.2 (732a01da63, 2022-12-09)"
   inkscape:export-filename="logo.png"
   inkscape:export-xdpi="96"
   inkscape:export-ydpi="96"
   viewBox="-1 -2 40.314961 20.15748"
   xmlns:inkscape="http://www.inkscape.org/namespaces/inkscape"
   xmlns:sodipodi="http://sodipodi.sourceforge.net/DTD/sodipodi-0.dtd"
   xmlns:xlink="http://www.w3.org/1999/xlink"
   xmlns="http://www.w3.org/2000/svg"
   xmlns:svg="http://www.w3.org/2000/svg"
   xmlns:rdf="http://www.w3.org/1999/02/22-rdf-syntax-ns#"
   xmlns:cc="http://creativecommons.org/ns#"
   xmlns:dc="http://purl.org/dc/elements/1.1/">
  <title
     id="title815">Pixel Engine Logo</title>
  <defs
     id="defs350">
    <linearGradient
       inkscape:collect="always"
       id="linearGradient2958">
      <stop
         style="stop-color:#ff4473;stop-opacity:1;"
         offset="0"
         id="stop2954" />
      <stop
         style="stop-color:#0048ff;stop-opacity:1;"
         offset="1"
         id="stop2956" />
    </linearGradient>
    <rect
       x="237.02623"
       y="70.057014"
       width="201.99773"
       height="106.83694"
       id="rect3420" />
    <rect
       x="204.8"
       y="38.399998"
       width="281.51242"
       height="182.8634"
       id="rect3414" />
    <linearGradient
       inkscape:collect="always"
       xlink:href="#linearGradient2958"
       id="linearGradient2992"
       x1="8"
       y1="3"
       x2="8"
       y2="24.204697"
       gradientUnits="userSpaceOnUse"
       spreadMethod="pad" />
    <linearGradient
       inkscape:collect="always"
       xlink:href="#linearGradient2958"
       id="linearGradient1353"
       x1="28.357313"
       y1="4.8780365"
       x2="28.357313"
       y2="16.135054"
       gradientUnits="userSpaceOnUse"
       gradientTransform="matrix(1.0078741,0,0,1.0078741,0.00786847,-0.61455224)" />
    <linearGradient
       inkscape:collect="always"
       xlink:href="#linearGradient2958"
       id="linearGradient2682"
       x1="28.981924"
       y1="9.2557688"
       x2="28.981924"
       y2="17.406433"
       gradientUnits="userSpaceOnUse"
       gradientTransform="matrix(1.0078741,0,0,1.0078741,0.00786826,-0.61455612)" />
    <linearGradient
       inkscape:collect="always"
       xlink:href="#linearGradient2958"
       id="linearGradient2952"
       gradientUnits="userSpaceOnUse"
       x1="8"
       y1="3"
       x2="7.999989"
       y2="19.999998"
       spreadMethod="pad" />
    <linearGradient
       inkscape:collect="always"
       xlink:href="#linearGradient2958"
       id="linearGradient3039"
       gradientUnits="userSpaceOnUse"
       x1="8.0000019"
       y1="1.9999995"
       x2="8.0000019"
       y2="18.312498"
       spreadMethod="pad" />
    <linearGradient
       inkscape:collect="always"
       xlink:href="#linearGradient2958"
       id="linearGradient3041"
       gradientUnits="userSpaceOnUse"
       x1="8"
       y1="7.8749995"
       x2="8"
       y2="14.999999"
       spreadMethod="pad" />
  </defs>
  <sodipodi:namedview
     id="namedview348"
     pagecolor="#ffffff"
     bordercolor="#000000"
     borderopacity="0.25"
     inkscape:showpageshadow="2"
     inkscape:pageopacity="0.0"
     inkscape:pagecheckerboard="0"
     inkscape:deskcolor="#d1d1d1"
     showgrid="true"
     inkscape:lockguides="false"
     inkscape:zoom="5.6568545"
     inkscape:cx="158.30352"
     inkscape:cy="93.33809"
     inkscape:window-width="1920"
     inkscape:window-height="1057"
     inkscape:window-x="-8"
     inkscape:window-y="-8"
     inkscape:window-maximized="1"
     inkscape:current-layer="svg346">
    <inkscape:grid
       type="xygrid"
       id="grid2096"
       originx="0"
       originy="0"
       spacingx="0.62992126"
       spacingy="0.62992126" />
  </sodipodi:namedview>
  <path
     style="fill:#000000;fill-opacity:1;stroke-width:0.0787401"
     d="m 18.527559,10.598425 v 5.03937 h 20.15748 v -5.03937 H 36.795276 V 5.5590551 H 20.417323 v 5.0393699 z"
     id="path2738" />
  <path
     style="fill:#000000;fill-opacity:1;stroke-width:1.25944"
     d="M 1.5302305,-0.7401575 V 10.598426 H 0.27120067 v 5.039367 H 1.5302305 v 1.259845 H 16.638605 v -1.259845 h 1.259032 V 10.598426 H 16.638605 V -0.7401575 h -2.518059 v 1.25984206 h -1.25903 V -0.7401575 H 10.343447 V 0.51968456 H 7.8253813 V -0.7401575 H 5.3073207 V 0.51968456 H 4.0482902 V -0.7401575 Z"
     id="path736" />
  <metadata
     id="metadata813">
    <rdf:RDF>
      <cc:Work
         rdf:about="">
        <dc:title>Pixel Engine Logo</dc:title>
        <dc:date>7 August 2023</dc:date>
        <dc:creator>
          <cc:Agent>
            <dc:title>Mounir Tohami</dc:title>
          </cc:Agent>
        </dc:creator>
        <dc:publisher>
          <cc:Agent>
            <dc:title>Mounir Tohami</dc:title>
          </cc:Agent>
        </dc:publisher>
      </cc:Work>
    </rdf:RDF>
  </metadata>
  <g
     id="g2961"
     style="opacity:1;fill:url(#linearGradient2992);fill-opacity:1;fill-rule:nonzero"
     transform="matrix(1.2590303,0,0,1.2598426,-0.98783124,-2.0000001)">
    <g
       id="g2950"
       style="fill:url(#linearGradient2952);fill-opacity:1">
      <path
         style="fill:url(#linearGradient3041);fill-opacity:1;fill-rule:nonzero"
         d="m 2,11 h 12 v 3 H 2 Z"
         id="path1953" />
      <path
         id="path2087"
         style="fill:url(#linearGradient3039);fill-opacity:1;fill-rule:nonzero"
         d="m 3,2 v 8 H 13 V 2 H 12 V 3 H 11 V 2 H 9 V 3 H 7 V 2 H 5 V 3 H 4 V 2 Z M 4,7 H 7 V 9 H 5 V 8 H 4 Z m 5,0 h 3 V 8 H 11 V 9 H 9 Z" />
    </g>
  </g>
  <text
     xml:space="preserve"
     transform="matrix(0.078125,0,0,0.078125,-1,-2)"
     id="text3412"
     style="white-space:pre;shape-inside:url(#rect3414);display:inline;fill:#ffffff" />
  <text
     xml:space="preserve"
     transform="matrix(0.078125,0,0,0.078125,-1,-2)"
     id="text3418"
     style="white-space:pre;shape-inside:url(#rect3420);display:inline;fill:#ffffff" />
  <text
     xml:space="preserve"
     style="font-size:0.9375px;fill:#000000;stroke-width:0.078125"
     x="20.710377"
     y="6.3922462"
     id="text3426"><tspan
       sodipodi:role="line"
       id="tspan3424"
       style="fill:#000000;stroke-width:0.078125"
       x="20.710377"
       y="6.3922462" /></text>
  <g
     aria-label="Pixel
"
     transform="scale(1.0006237,0.99937667)"
     id="text578"
     style="font-size:3.77559px;font-family:SixPixelsFont;-inkscape-font-specification:'SixPixelsFont, Normal';fill:url(#linearGradient1353);stroke-width:0.0609282">
    <path
       d="M 21.034124,9.9747248 V 6.1928422 h 1.894088 v 0.6355576 h 0.629265 V 8.0806371 H 22.928212 V 6.8283998 h -1.264823 v 1.2522373 h 1.264823 v 0.6355577 h -1.264823 v 1.25853 z"
       id="path994" />
    <path
       d="m 26.074539,9.9747248 h -1.894087 v -0.629265 h 0.629265 v -2.51706 H 24.180452 V 6.1928422 h 1.894087 v 0.6355576 h -0.635557 v 2.51706 h 0.635557 z"
       id="path996" />
    <path
       d="m 29.220862,9.9747248 v -1.25853 h 0.622972 v 1.25853 z m -2.523353,0 v -1.25853 h 0.629265 v 1.25853 z m 2.523353,-1.25853 H 28.591597 V 8.0806371 h 0.629265 z m -1.894088,0 V 8.0806371 h 0.629265 V 8.7161948 Z M 28.591597,8.0806371 H 27.956039 V 7.4513722 h 0.635558 z m 0,-0.6292649 V 6.8283998 h 0.629265 v 0.6229724 z m -0.635558,0 H 27.326774 V 6.8283998 h 0.629265 z M 29.220862,6.8283998 V 6.1928422 h 0.622972 v 0.6355576 z m -1.894088,0 H 26.697509 V 6.1928422 h 0.629265 z"
       id="path998" />
    <path
       d="m 31.102364,9.3454598 h 1.894087 v 0.629265 H 30.473099 V 6.1928422 h 2.523352 v 0.6355576 h -1.894087 v 0.6229724 h 1.25853 v 0.6292649 h -1.25853 z"
       id="path1000" />
    <path
       d="m 34.248692,9.3454598 h 1.894087 v 0.629265 H 33.619427 V 6.1928422 h 0.629265 z"
       id="path1002" />
  </g>
  <g
     aria-label="Engine"
     transform="scale(1.0006237,0.99937667)"
     id="text578-0"
     style="font-size:3.77559px;font-family:SixPixelsFont;-inkscape-font-specification:'SixPixelsFont, Normal';fill:url(#linearGradient2682);stroke-width:0.0609282">
    <path
       d="m 19.774801,14.387975 h 1.894088 v 0.629265 h -2.523353 v -3.781883 h 2.523353 v 0.635558 h -1.894088 v 0.622972 h 1.25853 v 0.629265 h -1.25853 z"
       id="path1005" />
    <path
       d="m 24.815216,15.01724 v -1.25853 h -0.629265 v -0.635558 h 0.629265 v -1.887795 h 0.622973 v 3.781883 z m -2.523352,0 v -3.781883 h 0.629265 v 0.635558 h 0.629265 v 0.622972 h 0.635557 v 0.629265 h -0.635557 v -0.629265 h -0.629265 v 2.523353 z"
       id="path1007" />
    <path
       d="m 26.696718,14.387975 h 1.264823 v 0.629265 h -1.264823 z m 1.264823,0 v -1.264823 h -0.635558 v -0.629265 h 1.264823 v 1.894088 z m -1.264823,0 h -0.629265 v -2.51706 h 0.629265 z m 0,-3.152618 h 1.894088 v 0.635558 h -1.894088 z"
       id="path1009" />
    <path
       d="m 31.107869,15.01724 h -1.894088 v -0.629265 h 0.629265 v -2.51706 h -0.629265 v -0.635558 h 1.894088 v 0.635558 h -0.635558 v 2.51706 h 0.635558 z"
       id="path1011" />
    <path
       d="m 34.254191,15.01724 v -1.25853 h -0.629265 v -0.635558 h 0.629265 v -1.887795 h 0.622973 v 3.781883 z m -2.523352,0 v -3.781883 h 0.629265 v 0.635558 h 0.629265 v 0.622972 h 0.635557 v 0.629265 h -0.635557 v -0.629265 h -0.629265 v 2.523353 z"
       id="path1013" />
    <path
       d="m 36.135693,14.387975 h 1.894087 v 0.629265 h -2.523352 v -3.781883 h 2.523352 v 0.635558 h -1.894087 v 0.622972 h 1.25853 v 0.629265 h -1.25853 z"
       id="path1015" />
  </g>
</svg>
